<svg width="24" height="24" fill="none" xmlns="http://www.w3.org/2000/svg"><g clip-path="url(#clip0_9344_47937)"><path d="M7.5 5H8V3.75c0-.464.184-.91.513-1.237l-.354-.354.354.354A1.75 1.75 0 019.75 2h4.5A1.75 1.75 0 0116 3.75V5h5.75a1.75 1.75 0 011.75 1.75v12a1.75 1.75 0 01-1.75 1.75H2.25A1.75 1.75 0 01.5 18.75v-12A1.75 1.75 0 012.25 5H7.5zM15 5h.5V3.75a1.25 1.25 0 00-1.25-1.25h-4.5A1.25 1.25 0 008.5 3.75V5H15zm8 5.726v-.65l-.629.167-9.92 2.645s0 0 0 0a1.75 1.75 0 01-.901 0l-9.921-2.646L1 10.074v8.676A1.25 1.25 0 002.25 20h19.5A1.25 1.25 0 0023 18.75v-8.024zm-.371-1.069L23 9.558V6.75a1.25 1.25 0 00-1.25-1.25H2.25A1.25 1.25 0 001 6.75v2.808l.371.1 10.306 2.747c.212.056.434.056.646 0l10.306-2.748z" fill="#FBFBFB" stroke="#FBFBFB"/></g><defs><clipPath id="clip0_9344_47937"><path fill="#fff" d="M0 0h24v24H0z"/></clipPath></defs></svg>