<svg width="28" height="28" fill="none" xmlns="http://www.w3.org/2000/svg"><path d="M23.625 5.25a.875.875 0 01.875.875V19.25h-21V6.125a.875.875 0 01.875-.875h19.25zM4.375 3.5A2.625 2.625 0 001.75 6.125V21h24.5V6.125A2.625 2.625 0 0023.625 3.5H4.375zM0 21.875h28a2.625 2.625 0 01-2.625 2.625H2.625A2.625 2.625 0 010 21.875z" fill="#030303"/><path fill-rule="evenodd" clip-rule="evenodd" d="M26.25 21H1.75V6.125A2.625 2.625 0 014.375 3.5h19.25a2.625 2.625 0 012.625 2.625V21zM.668 23.625a2.625 2.625 0 001.957.875h22.75A2.625 2.625 0 0028 21.875H0a2.624 2.624 0 00.668 1.75zM4.375 5.25a.875.875 0 00-.875.875V19.25h21V6.125a.875.875 0 00-.875-.875H4.375z" fill="#030303"/><path d="M16.539 8.98c.313 0 .58.01.8.03.22.014.423.037.61.07.187.027.38.067.58.12l-.11.93c-.207-.013-.4-.023-.58-.03-.18-.013-.373-.023-.58-.03-.2-.006-.44-.01-.72-.01-.387 0-.69.077-.91.23-.22.154-.377.41-.47.77-.087.36-.13.857-.13 1.49 0 .634.043 1.13.13 1.49.093.36.25.617.47.77.22.154.523.23.91.23.447 0 .82-.006 1.12-.02.307-.02.607-.046.9-.08l.11.92c-.3.094-.61.16-.93.2-.32.04-.72.06-1.2.06-.693 0-1.247-.113-1.66-.34-.413-.233-.713-.61-.9-1.13-.18-.52-.27-1.22-.27-2.1 0-.88.09-1.58.27-2.1.187-.52.487-.893.9-1.12.413-.233.967-.35 1.66-.35zm-4.369.122v6.9h-1.25v-5.14a6.4 6.4 0 01.01-.34c.014-.114.03-.227.05-.34l-1.66.46-.16-.84 1.76-.7h1.25z" fill="#030303"/></svg>