<svg width="24" height="24" fill="none" xmlns="http://www.w3.org/2000/svg"><mask id="a" fill="#fff"><path d="M17.3 10.5h5.9a.374.374 0 01.288.616l-2.95 3.54a.375.375 0 01-.575 0l-2.95-3.54a.375.375 0 01.289-.615zm-16.5 3h5.9a.376.376 0 00.288-.614l-2.95-3.54a.375.375 0 00-.575 0l-2.95 3.54a.375.375 0 00.289.615z"/></mask><path d="M17.3 10.5h5.9a.374.374 0 01.288.616l-2.95 3.54a.375.375 0 01-.575 0l-2.95-3.54a.375.375 0 01.289-.615zm-16.5 3h5.9a.376.376 0 00.288-.614l-2.95-3.54a.375.375 0 00-.575 0l-2.95 3.54a.375.375 0 00.289.615z" fill="#030303"/><path d="M23.199 10.5v-1 1zm.288.616l.768.64-.768-.64zm-2.95 3.54l.769.64-.768-.64zm-.575 0l-.769.64.769-.64zm-2.95-3.54l-.768.64.769-.64zM6.7 13.5v1-1zm.288-.615l.768-.64-.768.64zm-2.95-3.54l.769-.64-.768.64zm-.575 0l-.768-.64.768.64zm-2.95 3.54l-.768-.64.769.64zM17.302 11.5H23.2v-2h-5.9v2zm5.897 0a.626.626 0 01-.335-.098l1.074-1.687A1.375 1.375 0 0023.2 9.5v2zm-.335-.098a.625.625 0 01-.23-.262l1.81-.848a1.375 1.375 0 00-.506-.577l-1.074 1.687zm-.23-.262a.625.625 0 01-.054-.345l1.983.256a1.375 1.375 0 00-.118-.76l-1.811.849zm-.054-.345a.625.625 0 01.14-.32l1.536 1.28c.167-.201.274-.445.307-.704l-1.983-.256zm.14-.32l-2.95 3.54 1.537 1.28 2.949-3.54-1.537-1.28zm-2.95 3.54a.626.626 0 01.216-.166l.848 1.81c.182-.085.344-.209.473-.364l-1.536-1.28zm.216-.166a.624.624 0 01.265-.06v2c.201 0 .4-.044.583-.13l-.848-1.81zm.265-.06c.091 0 .182.02.265.06l-.848 1.81c.182.086.381.13.583.13v-2zm.265.06a.624.624 0 01.215.165l-1.536 1.281c.129.155.29.28.473.365l.848-1.811zm.215.166l-2.949-3.54-1.537 1.28 2.95 3.54 1.536-1.28zm-2.949-3.54a.624.624 0 01.14.32l-1.984.256c.034.259.14.503.307.704l1.537-1.28zm.14.32a.624.624 0 01-.054.345l-1.811-.848c-.111.236-.152.5-.119.759l1.984-.256zm-.054.345a.625.625 0 01-.23.262l-1.074-1.687c-.22.14-.397.34-.507.577l1.81.848zm-.23.262a.626.626 0 01-.336.098v-2c-.262 0-.518.074-.738.215l1.073 1.687zM.8 14.501h5.898v-2H.8v2zm5.898 0c.261 0 .517-.075.738-.215l-1.074-1.688a.625.625 0 01.335-.097l.001 2zm.738-.215c.22-.14.396-.34.507-.577l-1.812-.848a.626.626 0 01.231-.263l1.074 1.688zm.507-.577c.11-.237.152-.5.118-.76l-1.983.257a.625.625 0 01.053-.345l1.812.848zm.118-.76a1.375 1.375 0 00-.307-.703l-1.537 1.28a.625.625 0 01-.14-.32l1.984-.256zm-.307-.703l-2.949-3.54-1.537 1.28 2.95 3.54 1.536-1.28zm-2.95-3.54a1.375 1.375 0 00-.472-.365l-.848 1.811a.625.625 0 01-.215-.166l1.536-1.28zm-.472-.365a1.375 1.375 0 00-.583-.13v2a.625.625 0 01-.265-.059l.848-1.811zm-.583-.13c-.202 0-.4.044-.583.13l.848 1.811a.625.625 0 01-.265.059v-2zm-.583.13c-.183.085-.344.21-.473.364L4.23 9.986a.625.625 0 01-.215.166l-.848-1.811zm-.474.365l-2.949 3.54 1.537 1.28 2.949-3.54-1.537-1.28zm-2.949 3.54a1.37 1.37 0 00-.307.704l1.984.256a.625.625 0 01-.14.32l-1.537-1.28zm-.307.704c-.033.259.008.522.119.759l1.81-.848a.62.62 0 01.055.345l-1.984-.256zm.119.759c.11.236.286.437.507.577l1.073-1.688c.1.064.18.155.23.263l-1.81.848zm.507.577c.22.14.476.215.737.215l.001-2c.119 0 .235.034.335.097L.063 14.286z" fill="#030303" mask="url(#a)"/><path fill-rule="evenodd" clip-rule="evenodd" d="M12 4.5a7.483 7.483 0 00-5.785 2.728.75.75 0 11-1.156-.954A9.003 9.003 0 0120.876 10.5H19.35a7.503 7.503 0 00-7.35-6zm-7.35 9a7.503 7.503 0 0013.136 3.274.75.75 0 111.156.954A9.003 9.003 0 013.125 13.5h1.526z" fill="#030303"/></svg>