<svg width="24" height="24" fill="none" xmlns="http://www.w3.org/2000/svg"><g clip-path="url(#clip0_9983_10411)" fill="#5E60CE"><path fill-rule="evenodd" clip-rule="evenodd" d="M0 15.75a2.25 2.25 0 012.25-2.25h1.5A2.25 2.25 0 016 15.75v1.5a2.25 2.25 0 01-2.25 2.25h-1.5A2.25 2.25 0 010 17.25v-1.5zM2.25 15a.75.75 0 00-.75.75v1.5a.75.75 0 00.75.75h1.5a.75.75 0 00.75-.75v-1.5a.75.75 0 00-.75-.75h-1.5zm15.75.75a2.25 2.25 0 012.25-2.25h1.5A2.25 2.25 0 0124 15.75v1.5a2.25 2.25 0 01-2.25 2.25h-1.5A2.25 2.25 0 0118 17.25v-1.5zm2.25-.75a.75.75 0 00-.75.75v1.5a.75.75 0 00.75.75h1.5a.75.75 0 00.75-.75v-1.5a.75.75 0 00-.75-.75h-1.5zM9 6.75a2.25 2.25 0 012.25-2.25h1.5A2.25 2.25 0 0115 6.75v1.5a2.25 2.25 0 01-2.25 2.25h-1.5A2.25 2.25 0 019 8.25v-1.5zM11.25 6a.75.75 0 00-.75.75v1.5a.75.75 0 00.75.75h1.5a.75.75 0 00.75-.75v-1.5a.75.75 0 00-.75-.75h-1.5z"/><path d="M9 6.75H2.799a1.5 1.5 0 100 1.5h4.002a9.775 9.775 0 00-4.08 5.25H3.75c.185 0 .366.023.537.065a8.275 8.275 0 014.778-4.778A2.254 2.254 0 019 8.25v-1.5zm5.935 2.037A2.21 2.21 0 0015 8.25v-1.5h6.201a1.5 1.5 0 110 1.5h-4.002a9.775 9.775 0 014.08 5.25H20.25c-.184 0-.364.023-.537.065a8.274 8.274 0 00-4.778-4.778z"/></g><defs><clipPath id="clip0_9983_10411"><path fill="#fff" d="M0 0h24v24H0z"/></clipPath></defs></svg>