<svg width="28" height="28" fill="none" xmlns="http://www.w3.org/2000/svg"><path d="M7.71 5.848A9.677 9.677 0 0114 3.5c4.707 0 8.615 3.5 9.04 8.013 2.787.394 4.96 2.727 4.96 5.59 0 3.143-2.622 5.647-5.798 5.647H6.617C2.989 22.75 0 19.89 0 16.306c0-3.085 2.216-5.64 5.149-6.287.25-1.51 1.221-3.016 2.561-4.17zm1.143 1.325c-1.324 1.143-2.018 2.52-2.018 3.598v.784l-.778.086c-2.445.268-4.307 2.275-4.307 4.665C1.75 18.875 3.902 21 6.617 21h15.585c2.263 0 4.048-1.771 4.048-3.897 0-2.128-1.785-3.9-4.048-3.9h-.875v-.874C21.33 8.444 18.074 5.25 14 5.25a7.926 7.926 0 00-5.147 1.923z" fill="#030303"/><path fill-rule="evenodd" clip-rule="evenodd" d="M8.853 7.173c-1.324 1.143-2.018 2.52-2.018 3.598v.784l-.778.086c-2.445.268-4.307 2.275-4.307 4.665C1.75 18.875 3.902 21 6.617 21h15.585c2.263 0 4.048-1.771 4.048-3.897 0-2.128-1.785-3.9-4.048-3.9h-.875v-.881C21.325 8.44 18.072 5.25 14 5.25a7.926 7.926 0 00-5.147 1.923zM14 3.5c4.707 0 8.615 3.5 9.04 8.013 2.787.394 4.96 2.727 4.96 5.59 0 3.143-2.622 5.647-5.798 5.647H6.617C2.989 22.75 0 19.89 0 16.306c0-3.085 2.216-5.64 5.149-6.287.25-1.51 1.221-3.016 2.561-4.17A9.677 9.677 0 0114 3.5z" fill="#030303"/><path d="M17.066 11.277l-1.754 3.962c-.046.112-.046.2 0 .266.053.06.128.089.227.089H19.5v.778l-.867.119h-3.922a.766.766 0 01-.473-.148.738.738 0 01-.197-.887l1.843-4.179h1.182zm1.577 1.311v5.49H17.5v-4.386l.207-1.104h.936zm-7.876-1.428c.453 0 .844.04 1.172.118.329.08.582.23.76.454.183.216.275.539.275.966 0 .269-.033.518-.098.748-.066.23-.184.473-.355.73-.171.25-.408.535-.71.857l-1.852 1.99c.164-.026.335-.042.512-.049.184-.006.361-.01.532-.01h2.188v1.114H8.5v-.69c0-.105.013-.197.04-.276a.622.622 0 01.137-.236l1.804-1.99c.414-.44.726-.829.936-1.164.21-.341.312-.647.306-.916-.007-.177-.053-.306-.138-.384a.652.652 0 00-.365-.168 3.612 3.612 0 00-.582-.04c-.216 0-.423.004-.62.01-.197.007-.408.02-.631.04a15.36 15.36 0 00-.769.069l-.059-.927a9.238 9.238 0 012.208-.246z" fill="#030303"/></svg>