<svg width="24" height="24" fill="none" xmlns="http://www.w3.org/2000/svg"><path d="M8.74 21.075h-.001a1 1 0 00-.711.074h0c-.617.312-1.934.887-4.065 1.38l-.837.195.245-.824c.283-.95.477-1.922.579-2.907a1 1 0 00-.287-.8C1.99 16.516 1 14.349 1 12c0-5.122 4.792-9.5 11-9.5S23 6.878 23 12c0 5.123-4.791 9.5-11 9.5l-3.26-.425zm0 0A12.59 12.59 0 0012 21.5l-3.26-.425zm-5.56 2.133h0l-.03.006s0 0 0 0c-.271.054-.544.104-.817.15.108-.266.21-.535.304-.807l.005-.016.005-.016c.403-1.156.673-2.354.805-3.571l.026-.238-.169-.17C1.552 16.787.5 14.495.5 12 .5 6.538 5.584 2 12 2s11.5 4.538 11.5 10S18.416 22 12 22h0a13.092 13.092 0 01-3.392-.442l-.184-.05-.17.087c-.74.374-2.374 1.078-5.074 1.613zm8.113-10.5l-.354.353.354-.354a1 1 0 010-1.414l-.354-.354.354.354a1 1 0 011.414 0l.354-.354-.354.354a1 1 0 010 1.414l.354.354-.354-.354a1 1 0 01-1.414 0zM7 12a1 1 0 11-2 0 1 1 0 012 0zm11.707.707a1 1 0 11-1.414-1.414 1 1 0 011.414 1.414z" fill="#030303" stroke="#030303"/></svg>