<svg width="24" height="24" fill="none" xmlns="http://www.w3.org/2000/svg"><path d="M15.928 11.073h-.001a.249.249 0 00-.081-.055l.191-.462-.191.462a.25.25 0 00-.192 0l-.191-.462.191.462a.249.249 0 00-.081.054h0l-3.97 3.971-.353.354-.354-.354-1.719-1.72s0 0 0 0 0 0 0 0a.25.25 0 00-.081-.055l.191-.462-.191.462a.25.25 0 00-.273.055.25.25 0 000 .354l2.25 2.25h0c.023.024.05.043.081.055 0 0 0 0 0 0l-.191.462a.75.75 0 00.575 0l4.39-5.371zm0 0a.25.25 0 010 .354h0l-4.5 4.5h-.001a.249.249 0 01-.081.055l4.582-4.909zm.516.464a.751.751 0 01-.163.244l.163-.244zm0 0a.75.75 0 000-.575v.575zm-1.31-10.17l-.354.353.354-.354A1.25 1.25 0 0014.25 1h-4.5A1.25 1.25 0 008.5 2.25v1.5A1.25 1.25 0 009.75 5h4.5a1.25 1.25 0 001.25-1.25v-1.5c0-.332-.132-.65-.366-.884zM3.086 3.835l.353.353-.353-.353A2 2 0 002.5 5.25V21a2 2 0 002 2h15a2 2 0 002-2V5.25a2 2 0 00-2-2h-1v-.5h1a2.5 2.5 0 012.5 2.5V21a2.5 2.5 0 01-2.5 2.5h-15A2.5 2.5 0 012 21V5.25a2.5 2.5 0 012.5-2.5h1v.5h-1a2 2 0 00-1.414.586zm12.401-2.823l.354-.354-.354.354c.329.328.513.773.513 1.237v1.5a1.75 1.75 0 01-1.75 1.75h-4.5A1.75 1.75 0 018 3.75v-1.5A1.75 1.75 0 019.75.5h4.5c.464 0 .91.184 1.237.513z" fill="#030303" stroke="#030303"/></svg>