<svg width="24" height="24" fill="none" xmlns="http://www.w3.org/2000/svg"><g clip-path="url(#clip0_9983_54287)" fill="#5E60CE"><path d="M24 11.251a3.75 3.75 0 01-2.184 3.408 5.268 5.268 0 00-.976-1.236 2.251 2.251 0 00-1.183-4.344.75.75 0 01-.94-.631 4.5 4.5 0 00-7.83-2.438 8.38 8.38 0 00-1.915.132 6.003 6.003 0 0111.089 1.365A3.75 3.75 0 0124 11.251z"/><path d="M10.5 7.501a6.75 6.75 0 016.709 6h.04a3.75 3.75 0 110 7.5H4.5a4.5 4.5 0 01-.37-8.985 6.753 6.753 0 016.37-4.515zm5.25 6.75a5.25 5.25 0 00-10.335-1.31.75.75 0 01-.766.563 2.999 2.999 0 10-.15 5.997h12.75a2.25 2.25 0 10-.563-4.43.75.75 0 01-.937-.737v-.083z"/></g><defs><clipPath id="clip0_9983_54287"><path fill="#fff" d="M0 0h24v24H0z"/></clipPath></defs></svg>