<svg width="24" height="24" fill="none" xmlns="http://www.w3.org/2000/svg"><g clip-path="url(#clip0_9969_39161)"><path d="M9.994 5.516a5.502 5.502 0 019.582 2.116l.102.395.408-.02A3.25 3.25 0 0123.5 11.25L9.994 5.516zm0 0c.227-.013.454-.017.682-.013a5 5 0 018.537 2.883m-9.22-2.87L23.5 11.25a3.25 3.25 0 01-1.51 2.746 5.8 5.8 0 00-.303-.4 2.751 2.751 0 00-2.161-5l.131.482-.13-.482a.25.25 0 01-.314-.21m0 0l-.497.06.497-.06s0 0 0 0zM4.93 12.816h0a5.75 5.75 0 0111.32 1.434s0 0 0 0M4.93 12.818l11.32 1.434M4.93 12.818a.25.25 0 01-.255.188h-.003m.258-.188l-.258.188M16.25 14.25v.091h0a.25.25 0 00.024.112l-.452.214m.428-.415l-.428.415m0 0l.452-.214a.25.25 0 00.287.134s0 0 0 0l.125.485-.864-.405zm-11.15-1.662a3.498 3.498 0 00-2.543.937l.341.366m2.202-1.303L2.47 14.308m0 0l-.341-.366a3.5 3.5 0 002.368 6.06H4.5m-2.03-5.694L4.5 20m0 0h12.75M4.5 20h12.75m0 0c.39 0 .776-.085 1.13-.246l-.206-.455-.923.701zM10.5 8h0a6.25 6.25 0 016.212 5.556l.05.444h.487a3.25 3.25 0 010 6.5H4.5h0a4 4 0 01-.33-7.987l.324-.026.108-.306a6.253 6.253 0 015.899-4.18z" fill="#030303" stroke="#030303"/></g><defs><clipPath id="clip0_9969_39161"><path fill="#fff" d="M0 0h24v24H0z"/></clipPath></defs></svg>