<svg width="24" height="24" fill="none" xmlns="http://www.w3.org/2000/svg"><path d="M14.628 12.704l-.128.142v7.404a.25.25 0 01-.171.237h0l-4.5 1.5s0 0 0 0a.252.252 0 01-.225-.035l-.292.406.292-.406a.25.25 0 01-.104-.202v-8.904l-.128-.143-6.558-7.286s0 0 0 0a.25.25 0 01-.064-.167s0 0 0 0v-3A.25.25 0 013 2h18a.25.25 0 01.25.25v3s0 0 0 0a.25.25 0 01-.064.167l-6.558 7.287zM3.75 2.5h-.5v2.654l.128.142 6.558 7.287a.25.25 0 01.064.167s0 0 0 0v8.653l.658-.22 3-.999.342-.114v-7.32s0 0 0 0a.25.25 0 01.064-.167l6.558-7.287.128-.142V2.5h-17z" fill="#030303" stroke="#030303"/></svg>