<svg width="24" height="24" fill="none" xmlns="http://www.w3.org/2000/svg"><path d="M9.504 14.126c.126-.12.257-.236.393-.35a8.817 8.817 0 00-1.338-.226c-.352-.034-.705-.05-1.059-.05-6 0-7.5 4.5-7.5 6 0 1 .5 1.5 1.5 1.5h5.855a3.785 3.785 0 01-.146-.429m2.295-6.445a8.38 8.38 0 00-.984-.15h-.002a10.656 10.656 0 00-.71-.043m1.696.193c.168.035.335.077.501.123-.32.28-.61.58-.87.895m.369-1.018a8.227 8.227 0 00-.7.745l.331.273m-1.326-1.211v-.35l-.23.346m.23.004v1.492l-.195.002a7.811 7.811 0 00-1.185 4.076l-.004.426H1.071V19.5c0-.492.283-1.746 1.244-2.865.873-1.019 2.347-1.974 4.831-2.057l.432-.65m.23.005a11.06 11.06 0 00-.23-.004m0 0H7.5c-2.879 0-4.634 1.073-5.675 2.287C.767 17.451.43 18.852.43 19.5c0 .434.108.681.249.822.141.141.388.25.822.25H7.21m0 0h.446A3.357 3.357 0 017.5 19.5m-.291 1.071a3.785 3.785 0 01-.138-1.075m0 0v.004H7.5m-.429-.004v-.004l.429.008m-.429-.004c.001-1.62.606-3.262 1.734-4.625l.33.273M7.5 19.5c0-1.515.566-3.063 1.635-4.356m1.34 4.78l.029.005h11.988l.025-.003a.542.542 0 00.043-.006l.016-.003.016-.004.012-.003.327-.082-.002-.337c-.004-.494-.287-1.743-1.244-2.856-.913-1.067-2.488-2.064-5.185-2.064-2.697 0-4.273.995-5.186 2.064-.955 1.113-1.24 2.36-1.243 2.857v.344l.334.076c.023.005.046.01.07.013zm-7.835-3.01c.759-.886 2.037-1.75 4.218-1.893l-5.304 4.05a4.976 4.976 0 011.086-2.157zM7.38 15h0zm-.272.437A8.24 8.24 0 006 19.5H1.929l5.18-4.063zM23.571 19.5c0 .3-.073.497-.162.63a.889.889 0 01-.35.3 1.415 1.415 0 01-.556.141h-.004 0-11.998 0-.004a.973.973 0 01-.16-.017 1.415 1.415 0 01-.395-.125.89.89 0 01-.351-.3c-.089-.133-.162-.329-.162-.629 0-.648.338-2.049 1.396-3.284 1.041-1.214 2.796-2.287 5.675-2.287s4.634 1.073 5.675 2.287c1.058 1.235 1.396 2.636 1.396 3.284zM16.5 10.929a3.429 3.429 0 100-6.858 3.429 3.429 0 000 6.858zm-5.998 9.642s0 0 0 0h0zM20.572 7.5a4.072 4.072 0 11-8.144 0 4.072 4.072 0 018.143 0zm-17.893.75a4.071 4.071 0 118.142 0 4.071 4.071 0 01-8.142 0zM6.75 4.821a3.429 3.429 0 100 6.858 3.429 3.429 0 000-6.858z" fill="#030303" stroke="#030303" stroke-width=".857"/></svg>