<svg width="24" height="24" viewBox="0 0 24 24" fill="none" xmlns="http://www.w3.org/2000/svg">
<g clip-path="url(#clip0_9983_54287)">
<path d="M23.9995 11.2512C23.9996 11.9687 23.7939 12.6711 23.4068 13.2752C23.0197 13.8792 22.4674 14.3596 21.8155 14.6592C21.5542 14.2007 21.2256 13.784 20.8405 13.4232C21.4165 13.2662 21.9067 12.8869 22.203 12.3686C22.4994 11.8503 22.5777 11.2355 22.4207 10.6594C22.2638 10.0834 21.8845 9.59328 21.3662 9.29692C20.8478 9.00057 20.233 8.92225 19.657 9.07919C19.5533 9.10729 19.4448 9.11279 19.3388 9.09533C19.2329 9.07787 19.1319 9.03784 19.0427 8.97797C18.9535 8.91809 18.8783 8.83976 18.822 8.74828C18.7657 8.65679 18.7297 8.55428 18.7165 8.44769C18.6104 7.58868 18.2589 6.77848 17.704 6.11422C17.1491 5.44996 16.4144 4.95982 15.588 4.70255C14.7615 4.44529 13.8785 4.43181 13.0446 4.66374C12.2107 4.89567 11.4614 5.36317 10.8865 6.01019C10.2455 5.98077 9.60334 6.02506 8.9725 6.14219C9.54773 5.08291 10.4285 4.22133 11.5003 3.66962C12.572 3.1179 13.785 2.90161 14.9813 3.04889C16.1777 3.19617 17.302 3.7002 18.2079 4.49537C19.1138 5.29054 19.7594 6.34002 20.0605 7.50719C20.5681 7.48157 21.0756 7.55941 21.5523 7.73599C22.0289 7.91256 22.4646 8.18418 22.833 8.53435C23.2014 8.88451 23.4948 9.30591 23.6953 9.77295C23.8958 10.24 23.9993 10.7429 23.9995 11.2512Z" fill="#5E60CE"/>
<path d="M10.4995 7.50119C12.1601 7.50087 13.7625 8.11267 15.0003 9.2196C16.2381 10.3265 17.0245 11.8509 17.209 13.5012H17.2495C18.2441 13.5012 19.1979 13.8963 19.9011 14.5995C20.6044 15.3028 20.9995 16.2566 20.9995 17.2512C20.9995 18.2458 20.6044 19.1996 19.9011 19.9028C19.1979 20.6061 18.2441 21.0012 17.2495 21.0012H4.4995C3.33753 21.0021 2.22027 20.5534 1.38158 19.7492C0.542892 18.945 0.0477916 17.8476 -8.17291e-05 16.6866C-0.047955 15.5256 0.35511 14.3911 1.12474 13.5206C1.89437 12.6501 2.97091 12.111 4.129 12.0162C4.59253 10.6965 5.45439 9.55339 6.59554 8.74462C7.73669 7.93585 9.10081 7.50137 10.4995 7.50119ZM15.7495 14.2512C15.7504 12.9725 15.2845 11.7374 14.4394 10.7778C13.5943 9.81812 12.428 9.19992 11.1594 9.03919C9.89085 8.87845 8.60722 9.18623 7.54946 9.90476C6.49171 10.6233 5.73256 11.7032 5.4145 12.9417C5.37146 13.1093 5.27178 13.2569 5.13235 13.3594C4.99292 13.4619 4.82233 13.5131 4.6495 13.5042C4.25103 13.4865 3.85305 13.5484 3.47881 13.6864C3.10458 13.8243 2.76161 14.0355 2.46996 14.3076C2.17832 14.5797 1.94386 14.9072 1.7803 15.271C1.61673 15.6348 1.52735 16.0275 1.51738 16.4262C1.5074 16.825 1.57704 17.2217 1.72221 17.5932C1.86738 17.9647 2.08518 18.3035 2.36285 18.5898C2.64053 18.8761 2.97251 19.1042 3.33938 19.2607C3.70626 19.4172 4.10065 19.4989 4.4995 19.5012H17.2495C17.5685 19.5005 17.8838 19.4319 18.1743 19.3C18.4648 19.1682 18.7239 18.976 18.9345 18.7364C19.1451 18.4967 19.3023 18.215 19.3957 17.91C19.4891 17.6049 19.5166 17.2835 19.4763 16.967C19.436 16.6505 19.3288 16.3462 19.162 16.0743C18.9951 15.8024 18.7723 15.5691 18.5084 15.3899C18.2445 15.2106 17.9454 15.0896 17.6312 15.0347C17.3169 14.9798 16.9945 14.9925 16.6855 15.0717C16.5738 15.1003 16.457 15.1028 16.3442 15.0789C16.2314 15.055 16.1256 15.0055 16.035 14.9341C15.9445 14.8627 15.8716 14.7714 15.8221 14.6673C15.7726 14.5631 15.7477 14.449 15.7495 14.3337V14.2512Z" fill="#5E60CE"/>
</g>
<defs>
<clipPath id="clip0_9983_54287">
<rect width="24" height="24" fill="white"/>
</clipPath>
</defs>
</svg>
