<svg width="75" height="75" fill="none" xmlns="http://www.w3.org/2000/svg"><g clip-path="url(#clip0_10369_71297)"><path d="M9.982 34.14L5.814 57.776A4.004 4.004 0 009.06 62.41l19.696 3.473 4.862-27.575L9.982 34.14zm57.927-6.032L55.446 25.91c1.002-.453 1.877-.924 2.508-1.373 3.742-2.634 4.66-7.834 2.044-11.59-2.54-3.656-7.922-4.597-11.554-2.037-2.012 1.412-7.772 7.59-7.967 12.36l-.284-.05c1.444-4.55-1.856-12.325-3.26-14.34-2.54-3.648-7.921-4.597-11.553-2.036-3.739 2.634-4.655 7.834-2.048 11.588.444.639 1.105 1.38 1.892 2.15L12.76 18.383a4.007 4.007 0 00-4.634 3.244l-1.042 5.909a2 2 0 001.623 2.317l25.605 4.515L35.7 26.49l7.878 1.39-1.389 7.878 25.605 4.515a2 2 0 002.317-1.623l1.042-5.908a4.004 4.004 0 00-3.245-4.634zM36.186 22.38s-.188.1-.752.002c-2.722-.48-7.419-4.225-8.815-6.234a4.363 4.363 0 011.064-6.035 4.248 4.248 0 013.205-.718 4.246 4.246 0 012.763 1.77c2.184 3.14 3.62 10.428 2.535 11.215zm9.045 1.729c-.56-.099-.702-.254-.702-.258-.75-1.111 3.092-7.468 6.218-9.671 1.87-1.323 4.649-.841 5.968 1.052a4.355 4.355 0 01-1.064 6.035c-2 1.41-7.694 3.323-10.42 2.842zm-3.735 15.588l-4.863 27.575 19.697 3.473a4.001 4.001 0 004.634-3.245l4.167-23.635-23.635-4.168z" fill="#00654D"/></g><defs><clipPath id="clip0_10369_71297"><path fill="#fff" transform="rotate(10 5.97 68.245)" d="M0 0h64v64H0z"/></clipPath></defs></svg>