<svg width="29" height="28" viewBox="0 0 29 28" fill="none" xmlns="http://www.w3.org/2000/svg">
<path d="M21.6992 24.5C21.6992 22.6435 20.9617 20.863 19.649 19.5503C18.3362 18.2375 16.5557 17.5 14.6992 17.5C12.8427 17.5 11.0622 18.2375 9.74947 19.5503C8.43672 20.863 7.69922 22.6435 7.69922 24.5" stroke="#FBFBFB" stroke-width="1.5" stroke-linecap="round" stroke-linejoin="round"/>
<path d="M14.6979 17.5013C17.2752 17.5013 19.3646 15.412 19.3646 12.8346C19.3646 10.2573 17.2752 8.16797 14.6979 8.16797C12.1206 8.16797 10.0312 10.2573 10.0312 12.8346C10.0312 15.412 12.1206 17.5013 14.6979 17.5013Z" stroke="#FBFBFB" stroke-width="1.5" stroke-linecap="round" stroke-linejoin="round"/>
<path d="M22.8659 3.5H6.53255C5.24389 3.5 4.19922 4.54467 4.19922 5.83333V22.1667C4.19922 23.4553 5.24389 24.5 6.53255 24.5H22.8659C24.1545 24.5 25.1992 23.4553 25.1992 22.1667V5.83333C25.1992 4.54467 24.1545 3.5 22.8659 3.5Z" stroke="#FBFBFB" stroke-width="1.5" stroke-linecap="round" stroke-linejoin="round"/>
</svg>
