<svg width="28" height="28" fill="none" xmlns="http://www.w3.org/2000/svg"><g clip-path="url(#clip0_8989_51041)" fill="#030303"><path d="M14 26.25a12.25 12.25 0 110-24.5 12.25 12.25 0 010 24.5zM14 28a14 14 0 100-28 14 14 0 000 28z"/><path d="M15.627 11.529l-4.007.502-.143.665.787.146c.514.122.616.307.504.82l-1.292 6.07c-.339 1.569.184 2.308 1.414 2.308.954 0 2.062-.441 2.564-1.047l.154-.728c-.35.308-.86.43-1.2.43-.481 0-.656-.337-.532-.932l1.752-8.234zm.123-3.654a1.75 1.75 0 11-3.5 0 1.75 1.75 0 013.5 0z"/></g><defs><clipPath id="clip0_8989_51041"><path fill="#fff" d="M0 0h28v28H0z"/></clipPath></defs></svg>