<svg width="29" height="28" fill="none" xmlns="http://www.w3.org/2000/svg"><path d="M15.524 22.209l-.45.045v4.496h5.75a.375.375 0 110 .75H8.574a.375.375 0 110-.75h5.75v-4.496l-.45-.045A8.25 8.25 0 016.45 14v-1.75a.375.375 0 01.75 0V14a7.5 7.5 0 0015 0v-1.75a.375.375 0 01.64-.265l.354-.354-.354.354c.07.07.11.165.11.265V14a8.25 8.25 0 01-7.425 8.209zM18.058 1.89l.354-.353-.354.353a4.75 4.75 0 011.391 3.359V14a4.75 4.75 0 11-9.5 0V5.25a4.75 4.75 0 018.109-3.359zm-.53 14.937A4 4 0 0018.699 14V5.25a4 4 0 10-8 0V14a4 4 0 006.829 2.828z" fill="#030303" stroke="#FBFBFB"/></svg>