<svg width="29" height="28" viewBox="0 0 29 28" fill="none" xmlns="http://www.w3.org/2000/svg">
<path d="M3.69922 4.5H10.1992C11.3485 4.5 12.4507 4.95655 13.2633 5.7692C14.076 6.58186 14.5326 7.68406 14.5326 8.83333V24C14.5326 23.138 14.1901 22.3114 13.5806 21.7019C12.9712 21.0924 12.1445 20.75 11.2826 20.75H3.69922V4.5Z" stroke="#FBFBFB" stroke-width="1.5" stroke-linecap="round" stroke-linejoin="round"/>
<path d="M25.3646 4.5H18.8646C17.7153 4.5 16.6131 4.95655 15.8005 5.7692C14.9878 6.58186 14.5313 7.68406 14.5312 8.83333V24C14.5312 23.138 14.8737 22.3114 15.4832 21.7019C16.0926 21.0924 16.9193 20.75 17.7812 20.75H25.3646V4.5Z" stroke="#FBFBFB" stroke-width="1.5" stroke-linecap="round" stroke-linejoin="round"/>
</svg>
