<svg width="29" height="28" fill="none" xmlns="http://www.w3.org/2000/svg"><path d="M22.796 5.735v3.684m-4.111-.459V5.735m-2.191 0h8.472a.369.369 0 00.369-.369V1.525a.369.369 0 00-.369-.369h-8.472a.369.369 0 00-.369.369v3.841c0 .204.165.369.369.369zm8.305 14.952v-9.86a1.41 1.41 0 00-1.41-1.409H6.018c-.778 0-1.41.63-1.41 1.409v9.86m20.197 4.696H4.602A1.403 1.403 0 013.2 23.98v-1.89c0-.775.628-1.403 1.403-1.403h20.202c.775 0 1.403.628 1.403 1.403v1.89c0 .774-.628 1.403-1.403 1.403z" stroke="#FBFBFB" stroke-width="1.5" stroke-miterlimit="10" stroke-linecap="round" stroke-linejoin="round"/><path d="M7.27 14.273a.812.812 0 100-1.624.812.812 0 000 1.624zm3.265 0a.812.812 0 100-1.624.812.812 0 000 1.624zm3.265 0a.812.812 0 100-1.625.812.812 0 000 1.625zm0 3.835a.812.812 0 100-1.624.812.812 0 000 1.624zm-3.265 0a.812.812 0 100-1.624.812.812 0 000 1.624zm-3.265 0a.812.812 0 10-.001-1.624.812.812 0 000 1.624z" fill="#FBFBFB" stroke="#FBFBFB" stroke-width=".1" stroke-linecap="round" stroke-linejoin="round"/><path d="M6.457 9.42V4.61l1.56.82 1.562-.82 1.561.82 1.561-.82v4.81" stroke="#FBFBFB" stroke-width="1.3" stroke-miterlimit="10" stroke-linecap="round" stroke-linejoin="round"/></svg>