<svg width="29" height="28" fill="none" xmlns="http://www.w3.org/2000/svg"><g clip-path="url(#clip0_6414_21393)"><mask id="a" style="mask-type:luminance" maskUnits="userSpaceOnUse" x="1" y="-1" width="27" height="28"><path d="M26.45 26.043V.7h-24v25.343h24z" fill="#fff" stroke="#fff" stroke-width="1.5"/></mask><g mask="url(#a)" stroke="#FBFBFB" stroke-width="1.5" stroke-miterlimit="10" stroke-linecap="round" stroke-linejoin="round"><path d="M22.292 25.305H6.603c-.64 0-1.158-.519-1.158-1.158V2.457c0-.64.519-1.158 1.158-1.158h15.689c.64 0 1.158.518 1.158 1.158v21.69c0 .64-.519 1.158-1.158 1.158z"/><path d="M17.448 17.344H8.445V5.34h9.003v12.003zM8.414 11.25h9.002m3.034-5.912v6.002"/></g></g><defs><clipPath id="clip0_6414_21393"><path fill="#fff" transform="translate(.7)" d="M0 0h28v28H0z"/></clipPath></defs></svg>