<svg width="28" height="28" fill="none" xmlns="http://www.w3.org/2000/svg"><path d="M12.385 6.887L8.671 3.771a.594.594 0 00-.836.073L2.927 9.692a.594.594 0 00.073.836l3.714 3.117-.41.489h0a.966.966 0 00.119 1.36h0l9.07 7.611h0a4.256 4.256 0 005.99-.523h0l2.267-2.701h0a4.256 4.256 0 00-.524-5.99h0l-9.07-7.611h-.001a.966.966 0 00-1.36.119h0l-.41.488zM4.22 10l4.144-4.938 3.26 2.735-4.145 4.938L4.218 10zm3.138 4.727l6.205-7.395 8.9 7.469a3.067 3.067 0 01.378 4.317l-2.266 2.7a3.067 3.067 0 01-4.317.378l-8.9-7.47z" fill="#FBFBFB" stroke="#FBFBFB" stroke-width=".5"/></svg>