<svg width="24" height="24" fill="none" xmlns="http://www.w3.org/2000/svg"><mask id="a" fill="#fff"><path fill-rule="evenodd" clip-rule="evenodd" d="M9 5.25A2.25 2.25 0 0111.25 3h1.5A2.25 2.25 0 0115 5.25v1.5A2.25 2.25 0 0112.75 9v1.5H21a.75.75 0 01.75.75v1.5a.75.75 0 11-1.5 0V12h-7.5v.75a.75.75 0 11-1.5 0V12h-7.5v.75a.75.75 0 11-1.5 0v-1.5A.75.75 0 013 10.5h8.25V9A2.25 2.25 0 019 6.75v-1.5zm3.75 2.25a.75.75 0 00.75-.75v-1.5a.75.75 0 00-.75-.75h-1.5a.75.75 0 00-.75.75v1.5a.75.75 0 00.75.75h1.5zM0 17.25A2.25 2.25 0 012.25 15h1.5A2.25 2.25 0 016 17.25v1.5A2.25 2.25 0 013.75 21h-1.5A2.25 2.25 0 010 18.75v-1.5zm2.25-.75a.75.75 0 00-.75.75v1.5a.75.75 0 00.75.75h1.5a.75.75 0 00.75-.75v-1.5a.75.75 0 00-.75-.75h-1.5zm6.75.75A2.25 2.25 0 0111.25 15h1.5A2.25 2.25 0 0115 17.25v1.5A2.25 2.25 0 0112.75 21h-1.5A2.25 2.25 0 019 18.75v-1.5zm2.25-.75a.75.75 0 00-.75.75v1.5a.75.75 0 00.75.75h1.5a.75.75 0 00.75-.75v-1.5a.75.75 0 00-.75-.75h-1.5zm6.75.75A2.25 2.25 0 0120.25 15h1.5A2.25 2.25 0 0124 17.25v1.5A2.25 2.25 0 0121.75 21h-1.5A2.25 2.25 0 0118 18.75v-1.5zm2.25-.75a.75.75 0 00-.75.75v1.5a.75.75 0 00.75.75h1.5a.75.75 0 00.75-.75v-1.5a.75.75 0 00-.75-.75h-1.5z"/></mask><path fill-rule="evenodd" clip-rule="evenodd" d="M9 5.25A2.25 2.25 0 0111.25 3h1.5A2.25 2.25 0 0115 5.25v1.5A2.25 2.25 0 0112.75 9v1.5H21a.75.75 0 01.75.75v1.5a.75.75 0 11-1.5 0V12h-7.5v.75a.75.75 0 11-1.5 0V12h-7.5v.75a.75.75 0 11-1.5 0v-1.5A.75.75 0 013 10.5h8.25V9A2.25 2.25 0 019 6.75v-1.5zm3.75 2.25a.75.75 0 00.75-.75v-1.5a.75.75 0 00-.75-.75h-1.5a.75.75 0 00-.75.75v1.5a.75.75 0 00.75.75h1.5zM0 17.25A2.25 2.25 0 012.25 15h1.5A2.25 2.25 0 016 17.25v1.5A2.25 2.25 0 013.75 21h-1.5A2.25 2.25 0 010 18.75v-1.5zm2.25-.75a.75.75 0 00-.75.75v1.5a.75.75 0 00.75.75h1.5a.75.75 0 00.75-.75v-1.5a.75.75 0 00-.75-.75h-1.5zm6.75.75A2.25 2.25 0 0111.25 15h1.5A2.25 2.25 0 0115 17.25v1.5A2.25 2.25 0 0112.75 21h-1.5A2.25 2.25 0 019 18.75v-1.5zm2.25-.75a.75.75 0 00-.75.75v1.5a.75.75 0 00.75.75h1.5a.75.75 0 00.75-.75v-1.5a.75.75 0 00-.75-.75h-1.5zm6.75.75A2.25 2.25 0 0120.25 15h1.5A2.25 2.25 0 0124 17.25v1.5A2.25 2.25 0 0121.75 21h-1.5A2.25 2.25 0 0118 18.75v-1.5zm2.25-.75a.75.75 0 00-.75.75v1.5a.75.75 0 00.75.75h1.5a.75.75 0 00.75-.75v-1.5a.75.75 0 00-.75-.75h-1.5z" fill="#FBFBFB" stroke="#FBFBFB" stroke-width="2" mask="url(#a)"/></svg>