<svg width="24" height="24" fill="none" xmlns="http://www.w3.org/2000/svg"><g clip-path="url(#clip0_9224_32380)"><mask id="a" fill="#fff"><path d="M12 7.13a4.87 4.87 0 100 9.739 4.87 4.87 0 000-9.739zM8.631 12a3.369 3.369 0 116.738 0 3.369 3.369 0 01-6.738 0z"/><path d="M14.694 2.014c-.79-2.685-4.597-2.685-5.388 0l-.14.478a1.31 1.31 0 01-1.883.78l-.438-.24c-2.46-1.338-5.15 1.353-3.81 3.812l.238.438a1.31 1.31 0 01-.78 1.882l-.478.141c-2.685.79-2.685 4.598 0 5.388l.478.141a1.31 1.31 0 01.78 1.883l-.24.438c-1.338 2.46 1.352 5.15 3.812 3.81l.438-.239a1.308 1.308 0 011.882.78l.141.479c.79 2.685 4.598 2.685 5.388 0l.141-.479a1.31 1.31 0 011.883-.78l.438.24c2.46 1.34 5.15-1.353 3.81-3.811l-.239-.438a1.31 1.31 0 01.78-1.883l.479-.14c2.685-.791 2.685-4.598 0-5.389l-.479-.14a1.31 1.31 0 01-.78-1.883l.24-.438c1.34-2.46-1.353-5.15-3.811-3.81l-.438.238a1.31 1.31 0 01-1.883-.78l-.14-.478zm-3.95.424c.37-1.252 2.143-1.252 2.512 0l.14.479a2.81 2.81 0 004.04 1.672l.437-.24c1.146-.622 2.4.63 1.776 1.778l-.239.438a2.809 2.809 0 001.674 4.038l.477.14c1.253.37 1.253 2.143 0 2.512l-.478.14a2.81 2.81 0 00-1.673 4.04l.24.437c.623 1.146-.63 2.4-1.777 1.776l-.437-.239a2.81 2.81 0 00-4.04 1.674l-.14.477c-.37 1.253-2.142 1.253-2.511 0l-.141-.478a2.808 2.808 0 00-4.038-1.673l-.438.24c-1.146.623-2.4-.63-1.776-1.777l.238-.437a2.81 2.81 0 00-1.672-4.04l-.479-.142c-1.252-.369-1.252-2.142 0-2.51l.479-.142A2.81 2.81 0 004.59 6.565l-.24-.438c-.622-1.146.63-2.4 1.778-1.776l.438.238a2.81 2.81 0 004.038-1.672l.14-.479z"/></mask><path d="M12 7.13a4.87 4.87 0 100 9.739 4.87 4.87 0 000-9.739zM8.631 12a3.369 3.369 0 116.738 0 3.369 3.369 0 01-6.738 0z" fill="#FBFBFB"/><path d="M14.694 2.014c-.79-2.685-4.597-2.685-5.388 0l-.14.478a1.31 1.31 0 01-1.883.78l-.438-.24c-2.46-1.338-5.15 1.353-3.81 3.812l.238.438a1.31 1.31 0 01-.78 1.882l-.478.141c-2.685.79-2.685 4.598 0 5.388l.478.141a1.31 1.31 0 01.78 1.883l-.24.438c-1.338 2.46 1.352 5.15 3.812 3.81l.438-.239a1.308 1.308 0 011.882.78l.141.479c.79 2.685 4.598 2.685 5.388 0l.141-.479a1.31 1.31 0 011.883-.78l.438.24c2.46 1.34 5.15-1.353 3.81-3.811l-.239-.438a1.31 1.31 0 01.78-1.883l.479-.14c2.685-.791 2.685-4.598 0-5.389l-.479-.14a1.31 1.31 0 01-.78-1.883l.24-.438c1.34-2.46-1.353-5.15-3.811-3.81l-.438.238a1.31 1.31 0 01-1.883-.78l-.14-.478zm-3.95.424c.37-1.252 2.143-1.252 2.512 0l.14.479a2.81 2.81 0 004.04 1.672l.437-.24c1.146-.622 2.4.63 1.776 1.778l-.239.438a2.809 2.809 0 001.674 4.038l.477.14c1.253.37 1.253 2.143 0 2.512l-.478.14a2.81 2.81 0 00-1.673 4.04l.24.437c.623 1.146-.63 2.4-1.777 1.776l-.437-.239a2.81 2.81 0 00-4.04 1.674l-.14.477c-.37 1.253-2.142 1.253-2.511 0l-.141-.478a2.808 2.808 0 00-4.038-1.673l-.438.24c-1.146.623-2.4-.63-1.776-1.777l.238-.437a2.81 2.81 0 00-1.672-4.04l-.479-.142c-1.252-.369-1.252-2.142 0-2.51l.479-.142A2.81 2.81 0 004.59 6.565l-.24-.438c-.622-1.146.63-2.4 1.778-1.776l.438.238a2.81 2.81 0 004.038-1.672l.14-.479z" fill="#FBFBFB"/><path d="M12 7.13a4.87 4.87 0 100 9.739 4.87 4.87 0 000-9.739zM8.631 12a3.369 3.369 0 116.738 0 3.369 3.369 0 01-6.738 0z" stroke="#FBFBFB" stroke-width="2" mask="url(#a)"/><path d="M14.694 2.014c-.79-2.685-4.597-2.685-5.388 0l-.14.478a1.31 1.31 0 01-1.883.78l-.438-.24c-2.46-1.338-5.15 1.353-3.81 3.812l.238.438a1.31 1.31 0 01-.78 1.882l-.478.141c-2.685.79-2.685 4.598 0 5.388l.478.141a1.31 1.31 0 01.78 1.883l-.24.438c-1.338 2.46 1.352 5.15 3.812 3.81l.438-.239a1.308 1.308 0 011.882.78l.141.479c.79 2.685 4.598 2.685 5.388 0l.141-.479a1.31 1.31 0 011.883-.78l.438.24c2.46 1.34 5.15-1.353 3.81-3.811l-.239-.438a1.31 1.31 0 01.78-1.883l.479-.14c2.685-.791 2.685-4.598 0-5.389l-.479-.14a1.31 1.31 0 01-.78-1.883l.24-.438c1.34-2.46-1.353-5.15-3.811-3.81l-.438.238a1.31 1.31 0 01-1.883-.78l-.14-.478zm-3.95.424c.37-1.252 2.143-1.252 2.512 0l.14.479a2.81 2.81 0 004.04 1.672l.437-.24c1.146-.622 2.4.63 1.776 1.778l-.239.438a2.809 2.809 0 001.674 4.038l.477.14c1.253.37 1.253 2.143 0 2.512l-.478.14a2.81 2.81 0 00-1.673 4.04l.24.437c.623 1.146-.63 2.4-1.777 1.776l-.437-.239a2.81 2.81 0 00-4.04 1.674l-.14.477c-.37 1.253-2.142 1.253-2.511 0l-.141-.478a2.808 2.808 0 00-4.038-1.673l-.438.24c-1.146.623-2.4-.63-1.776-1.777l.238-.437a2.81 2.81 0 00-1.672-4.04l-.479-.142c-1.252-.369-1.252-2.142 0-2.51l.479-.142A2.81 2.81 0 004.59 6.565l-.24-.438c-.622-1.146.63-2.4 1.778-1.776l.438.238a2.81 2.81 0 004.038-1.672l.14-.479z" stroke="#FBFBFB" stroke-width="2" mask="url(#a)"/></g><defs><clipPath id="clip0_9224_32380"><path fill="#fff" d="M0 0h24v24H0z"/></clipPath></defs></svg>