<svg width="24" height="24" viewBox="0 0 24 24" fill="none" xmlns="http://www.w3.org/2000/svg">
<g clip-path="url(#clip0_9224_10158)">
<path d="M21.5 5.94902V7.35V11.25C21.5 11.3163 21.5263 11.3799 21.5732 11.4268C21.6201 11.4737 21.6837 11.5 21.75 11.5C21.8163 11.5 21.8799 11.4737 21.9268 11.4268C21.9737 11.3799 22 11.3163 22 11.25V5.25C22 5.1837 21.9737 5.12011 21.9268 5.07322C21.8799 5.02634 21.8163 5 21.75 5H15.75C15.6837 5 15.6201 5.02634 15.5732 5.07322C15.5263 5.12011 15.5 5.18369 15.5 5.25C15.5 5.31631 15.5263 5.37989 15.5732 5.42678C15.6201 5.47366 15.6837 5.5 15.75 5.5H20.1675H21.2226L20.5545 6.31661L15.3315 12.7006L14.9816 13.1283L14.5909 12.7375L10.6776 8.82273L21.5 5.94902ZM21.5 5.94902L20.613 7.03343M21.5 5.94902L20.613 7.03343M20.613 7.03343L15.1937 13.6586M20.613 7.03343L15.1937 13.6586M15.1937 13.6586C15.1716 13.6856 15.1441 13.7077 15.1129 13.7234C15.0818 13.7391 15.0477 13.7481 15.0128 13.7499C14.978 13.7516 14.9431 13.746 14.9106 13.7335C14.8781 13.721 14.8487 13.7019 14.824 13.6774M15.1937 13.6586L14.824 13.6774M14.824 13.6774C14.8239 13.6773 14.8238 13.6772 14.8237 13.6771L10.9436 9.79695L10.5298 9.38319L10.1856 9.85641L4.70865 17.3873C4.66885 17.4351 4.61257 17.4664 4.55077 17.475C4.48669 17.4839 4.42167 17.4676 4.36936 17.4295C4.31706 17.3915 4.28154 17.3346 4.27028 17.2709C4.25942 17.2094 4.27195 17.1462 4.30527 17.0936L10.2984 8.85309L10.2986 8.85273C10.3199 8.82349 10.3472 8.7992 10.3787 8.78153C10.4102 8.76385 10.4452 8.75323 10.4812 8.75038C10.5172 8.74753 10.5534 8.75252 10.5874 8.76501C10.6212 8.77746 10.6519 8.79706 10.6774 8.82249L14.824 13.6774ZM1.5 23H23.5V23.5H0.5V0.5H1V22.5V23H1.5Z" fill="#FBFBFB" stroke="#FBFBFB"/>
</g>
<defs>
<clipPath id="clip0_9224_10158">
<rect width="24" height="24" fill="white"/>
</clipPath>
</defs>
</svg>
