<svg width="31" height="32" fill="none" xmlns="http://www.w3.org/2000/svg"><path d="M20.984 23.898c-4.708.649-9.462-2.71-9.917-7.53-.41-4.356-.16-13.646-.16-13.785 0-.88.706-1.622 1.593-1.622s1.592.718 1.592 1.622c0 .185-.045 10.009.023 11.955.136 3.591 2.638 6.186 5.8 6.116 3.003-.07 5.573-2.733 5.55-5.815 0-3.29-2.525-5.7-6.073-5.723-.023 0-.364.047-.5.047-.91 0-1.66-.765-1.66-1.692 0-.926.727-1.668 1.66-1.714.113 0 .546-.046.682-.046 4.686-.186 8.689 3.475 9.098 8.27.387 5.028-2.911 9.268-7.688 9.917zM6.084 9.49c.955 0 1.729-.788 1.729-1.76 0-.973-.774-1.761-1.729-1.761-.955 0-1.729.788-1.729 1.76 0 .973.774 1.761 1.73 1.761z" fill="#C47A2C"/><path d="M14.004 9.025c-4.709-.648-9.463 2.711-9.918 7.53-.409 4.356-.159 13.647-.159 13.786 0 .903.705 1.621 1.592 1.621.888 0 1.593-.718 1.593-1.621 0-.186-.046-10.01.022-11.955.137-3.591 2.639-6.186 5.8-6.117 3.003.07 5.574 2.734 5.55 5.815 0 3.29-2.524 5.7-6.073 5.723-.022 0-.363-.046-.5-.046-.91 0-1.66.764-1.66 1.691s.728 1.668 1.66 1.715c.114 0 .546.023.683.046 4.685.185 8.688-3.475 9.098-8.271.387-5.005-2.912-9.268-7.688-9.917z" fill="#034A66"/><path d="M14.095 14.563c.136 3.591 2.638 6.186 5.8 6.117 3.002-.07 5.573-2.734 5.55-5.816 0-1.436 2.957-3.568 3.184-.857.41 5.005-2.889 9.245-7.665 9.917-4.709.648-9.463-2.711-9.917-7.53-.182-2.178 3.025-2.804 3.047-1.83z" fill="#C47A2C"/></svg>