<svg width="24" height="24" fill="none" xmlns="http://www.w3.org/2000/svg"><path d="M19.312 13.172c0 4.427-3.1 6.642-6.784 7.926a.885.885 0 01-.593-.01c-3.693-1.274-6.792-3.489-6.792-7.916v-6.2a.886.886 0 01.885-.885c1.771 0 3.985-1.063 5.526-2.409a1.036 1.036 0 011.346 0c1.55 1.355 3.755 2.409 5.526 2.409a.885.885 0 01.886.885v6.2z" stroke="#030303" stroke-width="1.5" stroke-linecap="round" stroke-linejoin="round"/><path d="M8.686 12.285h.008m3.533 0h.008m3.535 0h.008" stroke="#030303" stroke-width="1.7" stroke-linecap="round" stroke-linejoin="round"/></svg>