<svg width="28" height="28" fill="none" xmlns="http://www.w3.org/2000/svg"><path d="M3 21.875c0 .777.29 1.524.809 2.098l.106.112a3.126 3.126 0 002.21.915h15.75A3.126 3.126 0 0025 21.875V8.25H3v13.625zm6.625-9.125h8.75a.375.375 0 110 .75h-8.75a.375.375 0 110-.75zM1.25 7.5h25.5V3H1.25v4.5zm1 .75h-.5c-.29 0-.57-.101-.792-.283l-.092-.083A1.25 1.25 0 01.5 7V3.5c0-.29.101-.57.283-.792l.083-.092a1.25 1.25 0 01.76-.36l.124-.006h24.5A1.25 1.25 0 0127.5 3.5V7c0 .29-.101.57-.283.792l-.083.092a1.25 1.25 0 01-.884.366h-.5v13.625c0 .963-.36 1.89-1.003 2.6l-.132.14a3.875 3.875 0 01-2.74 1.135H6.125c-.964 0-1.89-.36-2.6-1.003l-.14-.132a3.875 3.875 0 01-1.135-2.74V8.25z" fill="#030303" stroke="#FBFBFB"/></svg>