<svg width="20" height="15" fill="none" xmlns="http://www.w3.org/2000/svg"><path d="M14.862 14.515l-2.055-4.392 1.38-.619.95 2.037.09-.25c.667-1.832.594-3.619-.218-5.36-.811-1.74-2.133-2.945-3.965-3.612-1.833-.667-3.62-.594-5.36.218-1.742.812-2.945 2.134-3.612 3.966L.662 5.99a8.256 8.256 0 011.763-2.887 8.609 8.609 0 012.632-1.911A8.609 8.609 0 018.213.404a8.257 8.257 0 013.344.506c1.108.403 2.07.99 2.886 1.762a8.61 8.61 0 011.911 2.632 8.61 8.61 0 01.788 3.156 8.257 8.257 0 01-.505 3.344l-.09.25 2.06-.96.659 1.36-4.404 2.06z" fill="#fff"/></svg>