<svg width="29" height="29" fill="none" xmlns="http://www.w3.org/2000/svg"><g clip-path="url(#clip0_11577_150034)"><path d="M14.525 4.002c1.466-1.26 3.599-1.548 5.702-1.394l.42.037c2.258.228 4.547.937 6.176 1.608l.657.283a.375.375 0 01.127.096l.033.043c.039.06.06.131.06.203v19.25a.373.373 0 01-.012.092l-.035.087a.372.372 0 01-.054.076l-.072.06a.381.381 0 01-.084.04l-.091.018a.377.377 0 01-.094-.005l-.09-.027c-1.477-.671-3.804-1.47-6.132-1.774l-.466-.053c-2.502-.253-4.803.127-6.078 1.718a.381.381 0 01-.06.06l-.07.044a.374.374 0 01-.246.027l-.079-.027a.378.378 0 01-.071-.044l-.06-.06c-1.196-1.491-3.292-1.919-5.613-1.758l-.467.04c-2.168.218-4.384.905-5.96 1.552l-.637.275a.376.376 0 01-.088.027l-.094.005a.375.375 0 01-.092-.018l-.084-.04a.373.373 0 01-.071-.06l-.055-.076a.373.373 0 01-.034-.087l-.012-.093V4.877l.004-.053a.375.375 0 01.03-.102l.026-.047a.375.375 0 01.113-.112l.047-.027c1.63-.742 4.25-1.63 6.831-1.891h.001c2.236-.223 4.558.012 6.122 1.357l.326.28.326-.28zM26.95 5.118l-.307-.128c-1.48-.619-3.568-1.287-5.655-1.552l-.417-.046c-2.367-.239-4.548.088-5.858 1.468l-.138.145v18.114l.747-.424c1.41-.8 3.21-.968 4.973-.83l.352.032h.002c2.008.2 4.045.785 5.623 1.387l.678.259V5.118zm-13.125-.113l-.137-.145c-1.23-1.294-3.222-1.662-5.417-1.506l-.442.038c-2.222.223-4.492.938-6.071 1.598l-.308.128v18.425l.679-.259c1.576-.601 3.615-1.185 5.624-1.39v.002c1.872-.189 3.822-.053 5.326.8l.746.422V5.005z" fill="#030303" stroke="#FBFBFB"/></g><defs><clipPath id="clip0_11577_150034"><path fill="#fff" transform="translate(.2 .5)" d="M0 0h28v28H0z"/></clipPath></defs></svg>