<svg width="24" height="24" fill="none" xmlns="http://www.w3.org/2000/svg"><path d="M12.28 2.999c1.34-1.153 3.33-1.356 5.246-1.163 2.213.224 4.459.986 5.857 1.622a.322.322 0 01.188.292v16.5a.322.322 0 01-.454.292h0c-1.352-.613-3.53-1.352-5.656-1.566-2.145-.217-4.117.11-5.21 1.474a.322.322 0 01-.502 0c-1.093-1.364-3.065-1.69-5.212-1.474-2.124.214-4.3.953-5.653 1.566H.883a.322.322 0 01-.454-.292V3.75l.012-.09a.322.322 0 01.176-.202c1.398-.636 3.644-1.398 5.857-1.622l-.001-.001c1.917-.192 3.907.012 5.248 1.164l.279.24.28-.24zm10.649.958l-.264-.11c-1.269-.53-3.058-1.103-4.847-1.33l-.357-.041c-2.03-.205-3.898.076-5.021 1.26l-.119.123v15.527l.64-.363c1.29-.732 2.96-.848 4.565-.685h.001c1.722.172 3.468.674 4.82 1.19l.582.22V3.957zm-11.25-.098l-.119-.124C10.508 2.626 8.8 2.31 6.918 2.443l-.379.033c-1.905.191-3.85.805-5.204 1.37l-.264.111v15.792l.581-.223c1.183-.45 2.668-.889 4.175-1.109l.647-.081c1.604-.162 3.276-.044 4.565.687l.64.362V3.859z" fill="#FBFBFB" stroke="#FBFBFB" stroke-width=".857"/></svg>