<svg width="24" height="24" fill="none" xmlns="http://www.w3.org/2000/svg"><path d="M6 .429h12c.597 0 1.172.207 1.63.582l.188.17c.483.483.753 1.137.753 1.819v20.25l-.011.085a.323.323 0 01-.326.235l-.085-.015a.32.32 0 01-.077-.037l-.016-.012-.018-.009-7.835-4.223-.203-.109-.203.11-7.835 4.222-.018.009-.016.012a.32.32 0 01-.162.052l-.086-.006a.322.322 0 01-.251-.314V3c0-.597.207-1.172.582-1.63l.17-.188a2.571 2.571 0 011.565-.74L6 .428zm0 .642A1.928 1.928 0 004.071 3v19.559l.628-.33 7.085-3.723.02-.01.018-.014a.322.322 0 01.356 0l.018.013.02.01L19.3 22.23l.628.33V3c0-.448-.156-.88-.437-1.223l-.129-.14A1.928 1.928 0 0018 1.07H6zm9.75 6.856c.021 0 .042.003.063.007l.06.018c.02.008.038.018.056.03l.048.04h.002a.32.32 0 01.04.05l.029.055a.322.322 0 01.018.185l-.018.061a.327.327 0 01-.03.056l-.04.049h0l-4.5 4.5v0a.317.317 0 01-.05.04l-.055.03a.321.321 0 01-.185.018l-.061-.018a.325.325 0 01-.056-.03l-.048-.04v0l-2.25-2.25a.322.322 0 01-.095-.228l.006-.063a.322.322 0 01.137-.205l.056-.03a.323.323 0 01.185-.018l.061.018c.04.016.075.04.105.07v0l1.72 1.72.302.304.303-.304 3.97-3.97v0a.319.319 0 01.048-.04l.056-.03a.32.32 0 01.123-.025z" fill="#FBFBFB" stroke="#FBFBFB" stroke-width=".857"/></svg>