<svg width="24" height="24" fill="none" xmlns="http://www.w3.org/2000/svg"><g clip-path="url(#clip0_12203_54138)" fill="#FBFBFB"><path d="M16.281 10.719a.751.751 0 010 1.062l-4.5 4.5a.751.751 0 01-1.062 0l-2.25-2.25a.75.75 0 111.062-1.062l1.719 1.72 3.969-3.97a.75.75 0 011.062 0z"/><path d="M5.25 0A.75.75 0 016 .75v.75h12V.75a.75.75 0 111.5 0v.75H21a3 3 0 013 3V21a3 3 0 01-3 3H3a3 3 0 01-3-3V4.5a3 3 0 013-3h1.5V.75A.75.75 0 015.25 0zM1.5 6v15A1.5 1.5 0 003 22.5h18a1.5 1.5 0 001.5-1.5V6h-21z"/></g><defs><clipPath id="clip0_12203_54138"><path fill="#fff" d="M0 0h24v24H0z"/></clipPath></defs></svg>