<svg width="24" height="24" fill="none" xmlns="http://www.w3.org/2000/svg"><path d="M6.479 8.76C3.33 8.76.957 10.143.957 11.98v7.363c0 1.835 2.373 3.22 5.522 3.22 3.148 0 5.522-1.385 5.522-3.22V11.98c0-1.836-2.374-3.22-5.522-3.22zm3.68 6.901c0 .487-1.397 1.38-3.68 1.38-2.283 0-3.681-.893-3.681-1.38v-1.24c.962.49 2.24.78 3.68.78 1.441 0 2.72-.29 3.682-.78v1.24zM6.48 10.6c2.283 0 3.68.893 3.68 1.38 0 .487-1.397 1.38-3.68 1.38-2.283 0-3.681-.893-3.681-1.38 0-.487 1.398-1.38 3.68-1.38zm0 10.123c-2.283 0-3.681-.894-3.681-1.38v-1.241c.962.49 2.24.78 3.68.78 1.441 0 2.72-.29 3.682-.78v1.24c0 .487-1.398 1.38-3.681 1.38zM23.044 5.078v12.884a4.607 4.607 0 01-4.602 4.602h-4.6a.92.92 0 010-1.841h4.6a2.764 2.764 0 002.761-2.761V5.078a2.764 2.764 0 00-2.76-2.76H9.24a2.764 2.764 0 00-2.761 2.76v.92a.92.92 0 11-1.84 0v-.92a4.607 4.607 0 014.6-4.601h9.203a4.607 4.607 0 014.602 4.601zM12.92 9.679a.92.92 0 110-1.84h4.601v-1.84H10.16v.46a.92.92 0 11-1.84 0v-.46c0-1.016.825-1.841 1.84-1.841h7.362c1.015 0 1.84.825 1.84 1.84v1.84a1.842 1.842 0 01-1.84 1.841h-4.601zm.92 7.363a.92.92 0 01.92-.92h3.681a.92.92 0 110 1.84h-3.68a.92.92 0 01-.92-.92zm0-3.681v-.92a.92.92 0 111.84 0v.92a.92.92 0 11-1.84 0zm5.522 0a.92.92 0 01-1.84 0v-.92a.92.92 0 011.84 0v.92z" fill="#fff"/><path d="M11.78 19.342v-7.361c0-.812-.523-1.556-1.47-2.109-.946-.552-2.287-.892-3.831-.892-1.545 0-2.885.34-3.83.892-.948.553-1.47 1.297-1.47 2.108v7.362c0 .811.522 1.556 1.47 2.109.945.551 2.285.891 3.83.891v.222l-.582-.017c-2.854-.159-4.94-1.483-4.94-3.204V11.98c0-1.836 2.373-3.22 5.522-3.22l.581.015C9.915 8.935 12 10.26 12 11.98v7.363l-.006.17c-.142 1.75-2.466 3.05-5.515 3.05v-.22c1.545 0 2.885-.34 3.83-.892.948-.553 1.47-1.298 1.47-2.109zm1.14 2.301a.92.92 0 01.83-.915l.091-.005h4.601a2.764 2.764 0 002.761-2.761V5.078a2.765 2.765 0 00-2.478-2.746l-.283-.015v-.22a2.985 2.985 0 012.982 2.981v12.884a2.985 2.985 0 01-2.982 2.982h-4.6a.7.7 0 00-.496 1.194.7.7 0 00.495.204v.222l-.091-.005a.92.92 0 01-.824-.825l-.005-.09zm5.522.7v.22h-4.6v-.22h4.6zm4.38-4.381V5.078a4.386 4.386 0 00-4.38-4.38H9.24a4.386 4.386 0 00-4.381 4.38v.92a.7.7 0 00.7.7v.22l-.092-.004a.92.92 0 01-.824-.825l-.005-.09v-.921A4.607 4.607 0 019.003.483L9.24.477h9.202a4.607 4.607 0 014.602 4.601v12.884l-.006.237a4.607 4.607 0 01-4.359 4.358l-.236.007v-.222a4.386 4.386 0 004.38-4.38zm-20.245 1.38v-1.6l.321.164c.926.471 2.168.756 3.58.756v.22l-.53-.013c-1.224-.063-2.308-.338-3.15-.767v1.24l.016.096c.151.466 1.348 1.182 3.247 1.275l.418.01c2.283 0 3.68-.894 3.68-1.38v-1.241c-.962.49-2.24.78-3.68.78v-.22c1.412 0 2.655-.285 3.58-.756l.322-.164v1.6c0 .218-.148.422-.326.585a2.997 2.997 0 01-.79.49c-.666.298-1.617.527-2.786.527-1.17 0-2.12-.229-2.787-.527a2.998 2.998 0 01-.79-.49c-.178-.163-.325-.367-.325-.585zm15.865-1.6v.22h-3.68v-.22h3.68zm.7-.7a.7.7 0 00-.7-.7h-3.68a.701.701 0 000 1.4v.22l-.091-.005a.92.92 0 01-.493-.204l-.067-.06a.92.92 0 01-.265-.56l-.005-.091a.92.92 0 01.209-.584l.06-.067a.92.92 0 01.56-.265l.091-.005h3.681l.092.005a.92.92 0 01.829.916l-.005.09a.922.922 0 01-.265.56l-.067.061a.92.92 0 01-.584.209v-.22a.701.701 0 00.7-.7zm-16.565-1.38V14.06l.321.164c.926.471 2.168.757 3.58.757v.22l-.53-.013c-1.224-.062-2.308-.338-3.15-.767v1.24l.016.096c.152.466 1.348 1.182 3.247 1.275l.418.01c2.14 0 3.502-.785 3.664-1.285l.017-.096v-1.24c-.963.49-2.241.78-3.681.78v-.22c1.412 0 2.655-.286 3.58-.757l.322-.164v1.601c0 .219-.148.422-.326.585a3 3 0 01-.79.49c-.666.298-1.617.527-2.786.527-1.17 0-2.12-.23-2.787-.528a3 3 0 01-.79-.49c-.178-.162-.325-.365-.325-.584zM15.46 13.36v-.921a.7.7 0 00-1.4 0v.921a.7.7 0 00.7.699v.22l-.09-.003a.921.921 0 01-.493-.204l-.067-.062a.92.92 0 01-.265-.56l-.005-.09v-.92a.92.92 0 01.209-.583l.06-.068a.92.92 0 01.651-.27l.09.004a.922.922 0 01.83.916v.92l-.004.091a.92.92 0 01-.916.83v-.221a.7.7 0 00.7-.699zm3.681 0v-.921a.7.7 0 00-1.399 0v.921a.699.699 0 00.7.699v.22l-.091-.003a.92.92 0 01-.492-.204l-.068-.062a.92.92 0 01-.266-.56l-.004-.09v-.92c0-.214.075-.42.208-.583l.062-.068a.92.92 0 01.65-.27l.092.004a.92.92 0 01.829.916v.92l-.005.091a.92.92 0 01-.265.56l-.067.062a.92.92 0 01-.584.208v-.221a.7.7 0 00.7-.699zm-8.982-1.38c0-.457-1.229-1.271-3.264-1.371l-.417-.01c-2.283 0-3.681.893-3.681 1.38l.016.095c.15.466 1.348 1.182 3.247 1.275l.418.01c2.14 0 3.503-.785 3.664-1.285l.017-.095zM12 8.758a.92.92 0 01.209-.583l.061-.068a.92.92 0 01.56-.264l.09-.005h4.602v-1.84H10.16v.46l-.005.09a.92.92 0 01-.915.83v-.221a.7.7 0 00.7-.7v-.68h7.803v2.281H12.92a.7.7 0 000 1.4v.22a.921.921 0 01-.582-.208l-.068-.061a.92.92 0 01-.265-.56L12 8.76zm5.522.7v.22h-4.601v-.22h4.601zm1.62-1.62V6c0-.894-.727-1.62-1.62-1.62H10.16c-.893 0-1.62.726-1.62 1.62v.46a.7.7 0 00.7.699v.22l-.091-.004a.92.92 0 01-.493-.203l-.067-.062a.92.92 0 01-.265-.56l-.005-.09V6c0-1.016.826-1.841 1.84-1.841h7.363l.188.01a1.842 1.842 0 011.653 1.83v1.84l-.01.189A1.844 1.844 0 0117.71 9.67l-.188.01v-.22c.893 0 1.62-.728 1.62-1.62zM6.258 6v-.92A2.985 2.985 0 019.24 2.095v.221a2.764 2.764 0 00-2.761 2.761v.92l-.005.09a.921.921 0 01-.916.83v-.22a.7.7 0 00.7-.7zm12.184-3.903v.221H9.24v-.22h9.202zm-8.061 9.884c0 .219-.148.421-.326.584a3.002 3.002 0 01-.79.49c-.666.299-1.617.527-2.786.527-1.17 0-2.12-.228-2.787-.526a3.003 3.003 0 01-.79-.491c-.178-.163-.325-.365-.325-.584 0-.218.147-.421.326-.584a3 3 0 01.789-.49c.666-.299 1.618-.527 2.787-.527 1.169 0 2.12.228 2.787.526a3 3 0 01.789.491c.178.163.326.366.326.584z" fill="#5E60CE"/></svg>