<svg width="24" height="24" fill="none" xmlns="http://www.w3.org/2000/svg"><g clip-path="url(#clip0_13945_59927)"><path d="M12 .5a11.5 11.5 0 110 23 11.5 11.5 0 010-23zm0 .5a11 11 0 100 22 11 11 0 000-22zm.003 14.5a1 1 0 11-1 1l.005-.098a.999.999 0 01.995-.902zM12 6.492a.858.858 0 01.815.593c.037.114.05.236.037.355v.002l-.525 5.261v.008a.328.328 0 01-.654 0v-.008l-.525-5.26V7.44l-.005-.09A.858.858 0 0112 6.493z" stroke="#FBFBFB"/></g><defs><clipPath id="clip0_13945_59927"><path fill="#fff" d="M0 0h24v24H0z"/></clipPath></defs></svg>