<svg width="24" height="24" fill="none" xmlns="http://www.w3.org/2000/svg"><path d="M3.085 5.582a1.929 1.929 0 00-.39.082l-.188.071c-.184.081-.353.19-.503.324l-.142.14a1.929 1.929 0 00-.33.498l-.074.187a1.93 1.93 0 00-.101.59l.008.2.955 10.5c.038.419.211.813.492 1.122l.127.127c.31.284.704.458 1.12.497l.18.009H19.76a1.93 1.93 0 001.162-.39l.138-.116c.31-.284.519-.66.595-1.071l.024-.178.956-10.5a1.93 1.93 0 00-.039-.597l-.055-.193a1.927 1.927 0 00-.276-.53l-.127-.155a1.932 1.932 0 00-.467-.374l-.178-.09a1.931 1.931 0 00-.779-.164H3.285l-.2.011zm.477-3.001a1.93 1.93 0 00-1.74 1.882v.027l.009.208.025.585.55-.2c.274-.1.57-.154.88-.154h9.128l-1.061-1.06h.002l-.732-.732a1.93 1.93 0 00-1.365-.566H3.75l-.188.01zM1.239 5.785L1.179 4.5c0-.597.207-1.172.582-1.63l.171-.188a2.571 2.571 0 011.564-.74l.254-.013h5.508c.597 0 1.172.207 1.63.582l.188.17h0l1.242 1.243a3.43 3.43 0 002.254 1l.17.005h5.973c.268 0 .534.041.788.123l.25.095c.245.109.472.254.671.431l.19.188c.18.197.33.422.44.665l.099.249c.085.254.13.519.134.786l-.01.266-.956 10.5a2.572 2.572 0 01-2.56 2.34H4.24a2.573 2.573 0 01-1.55-.52l-.184-.154a2.571 2.571 0 01-.794-1.428l-.033-.238-.955-10.5a2.55 2.55 0 01.44-1.682l.075-.11v-.155z" fill="#FBFBFB" stroke="#FBFBFB" stroke-width=".857"/></svg>