<svg width="24" height="24" fill="none" xmlns="http://www.w3.org/2000/svg"><g clip-path="url(#clip0_13945_59001)"><path d="M1 .5V23h22.5v.5H.5V.5H1zM15.75 5h6a.25.25 0 01.25.25v6a.25.25 0 01-.5 0v-5.3l-.887 1.083-5.42 6.625a.25.25 0 01-.18.092.253.253 0 01-.19-.073l-3.88-3.88-.413-.414-.345.473-5.477 7.53a.25.25 0 01-.404-.29l5.995-8.242v-.001a.252.252 0 01.288-.088.253.253 0 01.09.057l3.914 3.915.39.39.35-.427 5.224-6.384.668-.816H15.75a.25.25 0 010-.5z" fill="#FBFBFB" stroke="#FBFBFB"/></g><defs><clipPath id="clip0_13945_59001"><path fill="#fff" d="M0 0h24v24H0z"/></clipPath></defs></svg>