<svg width="29" height="29" fill="none" xmlns="http://www.w3.org/2000/svg"><g clip-path="url(#clip0_11577_150023)" stroke="#FBFBFB"><path d="M25.747 19.42V6.293a3 3 0 00-.81-2.063 2.694 2.694 0 00-1.956-.854H6.39c-.733 0-1.437.307-1.955.854a3 3 0 00-.81 2.063v13.129m22.122 0H3.625m22.122 0l1.77 3.719a1.527 1.527 0 01-.06 1.426 1.43 1.43 0 01-.508.508c-.207.12-.44.183-.677.181H3.099c-.237.002-.47-.06-.677-.181a1.416 1.416 0 01-.507-.508 1.527 1.527 0 01-.06-1.426l1.77-3.72" stroke-width="1.5" stroke-linecap="round" stroke-linejoin="round"/><path d="M14.707 11.52a2.287 2.287 0 100-4.575 2.287 2.287 0 000 4.574z" stroke-width="1.2"/><path d="M10.37 16.562s.999-2.968 4.118-3.03c3.12-.062 4.555 3.03 4.555 3.03" stroke-width="1.2" stroke-linecap="round"/></g><defs><clipPath id="clip0_11577_150023"><path fill="#fff" transform="translate(.2 .5)" d="M0 0h28v28H0z"/></clipPath></defs></svg>