<svg width="24" height="24" fill="none" xmlns="http://www.w3.org/2000/svg"><g clip-path="url(#clip0_11680_71802)"><path d="M3 .429h18c.597 0 1.172.207 1.63.582l.188.17c.483.483.753 1.137.753 1.819v18c0 .597-.207 1.172-.582 1.63l-.17.188a2.572 2.572 0 01-1.819.753H3a2.572 2.572 0 01-1.63-.582l-.188-.17A2.572 2.572 0 01.429 21V3l.012-.254c.05-.505.248-.984.57-1.376l.17-.188a2.571 2.571 0 011.565-.74L3 .428zM1.071 21c0 .448.156.88.437 1.223l.129.14c.361.362.852.566 1.363.566h13.929V5.57H1.07V21zm16.5 1.929H21c.448 0 .88-.156 1.223-.437l.14-.129c.362-.361.566-.851.566-1.363V5.571H17.57V22.93zm-12.321-4.5h7.5a.321.321 0 110 .642h-7.5a.322.322 0 01-.179-.053l-.049-.04a.321.321 0 01-.04-.407l.04-.049a.322.322 0 01.228-.093zm0-4.5h7.5a.321.321 0 110 .642h-7.5a.322.322 0 01-.179-.053l-.049-.04a.321.321 0 01-.04-.407l.04-.048a.322.322 0 01.228-.094zm0-4.5h7.5c.064 0 .126.018.179.053l.048.04a.322.322 0 01.04.407l-.04.049a.322.322 0 01-.227.093h-7.5a.322.322 0 01-.179-.053l-.049-.04a.322.322 0 01-.04-.407l.04-.049a.322.322 0 01.228-.093zM3 1.07A1.928 1.928 0 001.071 3v1.929H22.93V3c0-.448-.156-.88-.437-1.223l-.129-.14A1.928 1.928 0 0021 1.07H3z" fill="#FBFBFB" stroke="#FBFBFB" stroke-width=".857"/></g><defs><clipPath id="clip0_11680_71802"><path fill="#fff" d="M0 0h24v24H0z"/></clipPath></defs></svg>