<svg width="24" height="24" fill="none" xmlns="http://www.w3.org/2000/svg"><path d="M4.586 16.667l.05.094 2.406 4.542.006.013.11.264h1.6l-.069-.49-.002-.02-.001-.003-.665-4.449-.051-.344-.347-.02-1.296-.07a93.198 93.198 0 00-1.298-.054l-.443-.016v.553zM21.75 2.571a1.178 1.178 0 00-1.179 1.179v16.5a1.178 1.178 0 002.358 0V3.75a1.178 1.178 0 00-1.179-1.179zm-2.446 2.823c-3.45 1.773-7.686 2.719-11.833 3.002l-.4.028v7.155l.406.023c.266.014.531.033.794.053h.003c3.812.28 7.537 1.103 11.026 2.942l.629.33V5.074l-.625.32zm-13.32 3.08c-.992.037-1.986.062-2.98.078a1.959 1.959 0 00-1.933 1.945V13.5c0 .996.76 1.82 1.735 1.93l.198.012c.992.012 1.985.04 2.976.083l.449.02V8.459l-.445.017zM19.93 19.682l-.216-.123c-3.308-1.9-6.863-2.816-10.54-3.18l-.546-.054.081.544.607 4.068.001.007.002.01a1.072 1.072 0 01-1.053 1.269h-.822a1.073 1.073 0 01-.981-.642l-.007-.015-.008-.014-2.774-5.236-.12-.223-.252-.004-.304-.005h-.002a2.592 2.592 0 01-2.554-2.33L.43 13.5v-2.998A2.601 2.601 0 012.995 7.91c1.247-.017 2.493-.055 3.738-.113h.002c4.606-.233 9.336-1.285 12.978-3.354l.217-.123v-.57a1.821 1.821 0 113.642 0v16.5a1.821 1.821 0 11-3.642 0v-.57z" fill="#FBFBFB" stroke="#FBFBFB" stroke-width=".857"/></svg>