<svg width="24" height="24" fill="none" xmlns="http://www.w3.org/2000/svg"><path d="M3.75 1.929h9.75a.322.322 0 010 .643H3.75a1.178 1.178 0 00-1.179 1.179v16.5a1.18 1.18 0 001.179 1.178h16.5a1.178 1.178 0 001.179-1.178v-9a.322.322 0 01.549-.228c.06.06.093.143.093.228v9a1.821 1.821 0 01-1.821 1.821H3.75a1.822 1.822 0 01-1.821-1.821v-16.5A1.822 1.822 0 013.75 1.929zm16.273 4.666l-9.917 9.918a.321.321 0 01-.126.077h0l-3.52 1.174 1.175-3.519a.323.323 0 01.078-.126v0L17.628 4.2l2.395 2.395zm.76-5.416c.085 0 .168.033.228.093l1.813 1.814v.002l.125.125a.323.323 0 010 .454l-1.262 1.262-2.393-2.394 1.263-1.263h-.001a.322.322 0 01.227-.093z" fill="#FBFBFB" stroke="#FBFBFB" stroke-width=".857"/></svg>