<svg width="28" height="28" fill="none" xmlns="http://www.w3.org/2000/svg"><path d="M19.25 16.25c3.358 0 5.405 1.252 6.62 2.669 1.235 1.44 1.63 3.076 1.63 3.831 0 .35-.086.58-.19.734-.105.159-.25.27-.409.35a1.655 1.655 0 01-.648.166H12.247c-.007 0-.02 0-.037-.002a1.655 1.655 0 01-.611-.164 1.036 1.036 0 01-.41-.35C11.087 23.33 11 23.1 11 22.75c0-.755.395-2.39 1.63-3.831 1.214-1.417 3.261-2.669 6.62-2.669zm-10.5 0h.001l.089.002-.506.759c-2.709.09-4.389 1.069-5.428 2.168l-.206.228c-1.12 1.305-1.45 2.768-1.45 3.343v.5h6.246l.004-.496a9.113 9.113 0 011.384-4.756l.226-.002v-1.738c.078.002.157.002.235.006l.593.042h.001a9.83 9.83 0 011.147.175 9.687 9.687 0 00-.464.468l-.35.4c-1.314 1.59-2.02 3.503-2.022 5.392-.008.427.047.85.16 1.259H1.75c-.507 0-.794-.126-.959-.291C.626 23.544.5 23.257.5 22.75c0-.755.395-2.39 1.63-3.831 1.214-1.417 3.262-2.669 6.62-2.669zm10.5.75c-2.95 0-4.751 1.02-5.842 2.176l-.209.232c-1.114 1.298-1.447 2.753-1.449 3.333l-.002.402.392.087a.97.97 0 00.08.015l.034.005H26.24l.03-.003.05-.008.019-.003.018-.005.014-.003.382-.095-.003-.394c-.004-.54-.295-1.854-1.251-3.087l-.2-.245C24.233 18.163 22.395 17 19.25 17zM7.875 4.875a4.75 4.75 0 013.188 1.229l.17.163a4.75 4.75 0 01.163 6.546l-.163.17a4.75 4.75 0 01-6.546.163l-.17-.163a4.75 4.75 0 01-.163-6.546l.163-.17a4.75 4.75 0 013.358-1.392zM19.25 4a4.75 4.75 0 013.189 1.229l.17.163a4.75 4.75 0 011.114 4.958l-.084.217a4.753 4.753 0 01-.87 1.373l-.16.168a4.749 4.749 0 01-1.328.936l-.214.095a4.75 4.75 0 01-3.417.084l-.217-.084a4.751 4.751 0 01-2.477-2.358l-.095-.214a4.75 4.75 0 01.867-5.005l.164-.17A4.75 4.75 0 0119.25 4zM7.875 5.625A4 4 0 005.19 6.66l-.143.137a4 4 0 00-.137 5.513l.137.143a4 4 0 005.513.137l.143-.137a4 4 0 00.137-5.513l-.137-.143a4 4 0 00-2.828-1.172zM19.25 4.75a4 4 0 00-2.685 1.035l-.143.137a4 4 0 00-.137 5.513l.137.143a4 4 0 005.513.137l.143-.137a4 4 0 00.137-5.513l-.137-.143A4 4 0 0019.25 4.75z" fill="#030303" stroke="#FBFBFB"/></svg>