<svg width="29" height="28" fill="none" xmlns="http://www.w3.org/2000/svg"><path d="M20.824 16.25c.964 0 1.89.36 2.6 1.003l.14.132a3.875 3.875 0 01.132 5.34l-.132.14a3.876 3.876 0 01-5.34.132l-.14-.132a3.875 3.875 0 01-.132-5.34l.132-.14a3.875 3.875 0 012.74-1.135zM23.45 4.656c.04 0 .078.003.116.011l.112.034c.036.015.07.033.102.055l.09.074a.596.596 0 01.074.09l.055.102a.594.594 0 01.034.344l-.034.112a.595.595 0 01-.055.102l-.074.09-17.5 17.5a.59.59 0 01-.09.074l-.102.055a.594.594 0 01-.344.033l-.111-.033a.593.593 0 01-.267-.219l-.055-.102a.594.594 0 01-.033-.344l.033-.111a.593.593 0 01.055-.103l.074-.09 17.5-17.5a.599.599 0 01.09-.074l.103-.055a.594.594 0 01.227-.045zM20.824 17a3.125 3.125 0 100 6.25 3.125 3.125 0 000-6.25zM8.574 4c.964 0 1.89.36 2.6 1.003l.14.132a3.875 3.875 0 01-5.34 5.612l-.14-.132a3.875 3.875 0 01-.132-5.34l.132-.14A3.875 3.875 0 018.574 4zm0 .75c-.777 0-1.524.29-2.097.809l-.113.106a3.125 3.125 0 00-.106 4.308l.106.112a3.126 3.126 0 004.308.106l.112-.106a3.126 3.126 0 00.107-4.308l-.107-.112a3.125 3.125 0 00-2.21-.915z" fill="#030303" stroke="#FBFBFB"/></svg>