<svg width="29" height="28" fill="none" xmlns="http://www.w3.org/2000/svg"><path d="M14.7 16.25c4.269 0 6.757 1.277 8.177 2.697 1.434 1.435 1.822 3.056 1.822 3.803 0 .35-.086.58-.19.734a1.03 1.03 0 01-.408.35 1.654 1.654 0 01-.649.166H5.946c-.007 0-.02 0-.037-.002a1.654 1.654 0 01-.611-.164 1.037 1.037 0 01-.41-.35c-.103-.155-.189-.384-.189-.734 0-.747.388-2.368 1.822-3.803 1.42-1.42 3.909-2.697 8.178-2.697zm0 .75c-3.857 0-6.104 1.077-7.401 2.243l-.247.235c-1.284 1.283-1.598 2.706-1.603 3.261l-.004.504h18.506l-.002-.502c-.002-.558-.32-1.98-1.602-3.264C21.094 18.226 18.81 17 14.699 17zm0-13a4.75 4.75 0 013.188 1.229l.17.163a4.75 4.75 0 01-6.547 6.88l-.17-.164a4.75 4.75 0 01-.163-6.546l.163-.17A4.75 4.75 0 0114.699 4zm0 .75a4 4 0 00-2.685 1.035l-.144.137a4 4 0 00-.137 5.513l.137.143a4 4 0 005.513.137l.143-.137a4 4 0 00.137-5.513l-.137-.143A4 4 0 0014.7 4.75z" fill="#030303" stroke="#FBFBFB"/></svg>