<svg width="29" height="29" fill="none" xmlns="http://www.w3.org/2000/svg"><g clip-path="url(#clip0_12203_5723)"><path d="M9.25 1h10.5a3 3 0 011.901.68l.22.199A3 3 0 0122.75 4v21a3 3 0 01-.68 1.901l-.199.22A3 3 0 0119.75 28H9.25a3 3 0 01-1.901-.68l-.22-.199A3 3 0 016.25 25V4l.015-.297A3 3 0 016.93 2.1l.199-.22a3 3 0 011.824-.864L9.25 1zm0 .75a2.25 2.25 0 00-1.426.51l-.165.15A2.25 2.25 0 007 4v21a2.25 2.25 0 002.25 2.25h10.5a2.25 2.25 0 001.426-.51l.165-.15A2.25 2.25 0 0022 25V4a2.25 2.25 0 00-.51-1.426l-.15-.165a2.25 2.25 0 00-1.59-.659H9.25zM14.5 22c.29 0 .57.101.792.283l.092.083a1.25 1.25 0 01.083 1.676l-.083.092a1.25 1.25 0 01-1.676.083l-.092-.083a1.25 1.25 0 01-.083-1.676l.083-.092A1.25 1.25 0 0114.5 22z" fill="#030303" stroke="#FBFBFB"/></g><defs><clipPath id="clip0_12203_5723"><path fill="#fff" transform="translate(.5 .5)" d="M0 0h28v28H0z"/></clipPath></defs></svg>