<svg width="48" height="48" fill="none" xmlns="http://www.w3.org/2000/svg"><path fill="#fff" d="M12.256 15.32h22.468v17.362H12.256z"/><path d="M43.12 21.477l-2.72-3.16c-.52-.6-.94-1.72-.94-2.52v-3.4c0-2.12-1.74-3.86-3.86-3.86h-3.4c-.78 0-1.92-.42-2.52-.94l-3.16-2.72c-1.38-1.18-3.64-1.18-5.04 0l-3.14 2.74c-.6.5-1.74.92-2.52.92h-3.46c-2.12 0-3.86 1.74-3.86 3.86v3.42c0 .78-.42 1.9-.92 2.5l-2.7 3.18c-1.16 1.38-1.16 3.62 0 5l2.7 3.18c.5.6.92 1.72.92 2.5v3.42c0 2.12 1.74 3.86 3.86 3.86h3.46c.78 0 1.92.42 2.52.94l3.16 2.72c1.38 1.18 3.64 1.18 5.04 0l3.16-2.72c.6-.52 1.72-.94 2.52-.94h3.4c2.12 0 3.86-1.74 3.86-3.86v-3.4c0-.78.42-1.92.94-2.52l2.72-3.16c1.16-1.38 1.16-3.66-.02-5.04zm-10.8-1.26l-9.66 9.66a1.5 1.5 0 01-2.12 0l-4.84-4.84c-.58-.58-.58-1.54 0-2.12.58-.58 1.54-.58 2.12 0l3.78 3.78 8.6-8.6c.58-.58 1.54-.58 2.12 0 .58.58.58 1.54 0 2.12z" fill="#C47A2D"/></svg>