<svg width="24" height="24" fill="none" xmlns="http://www.w3.org/2000/svg"><path d="M18.923.858l.204.032a1.824 1.824 0 011.158.801l.102.181c.09.186.149.387.173.592l.011.207v2.258h1.179c.423 0 .83.146 1.154.412l.134.12c.342.342.533.806.533 1.289v13.5a1.822 1.822 0 01-1.821 1.821H2.25c-.423 0-.83-.146-1.154-.412l-.134-.12a1.822 1.822 0 01-.533-1.289V6.75l.008-.175c.033-.347.166-.678.381-.952l.115-.132a1.822 1.822 0 011.06-.545l.174-.016.043-.002.042-.011L18.308.905c.2-.05.41-.066.615-.047zM2.25 5.571A1.178 1.178 0 001.071 6.75v13.5c0 .273.095.537.267.747l.079.087c.221.22.52.345.833.345h19.5c.273 0 .537-.095.747-.267l.086-.078a1.18 1.18 0 00.346-.834V6.75a1.178 1.178 0 00-1.179-1.179H2.25zM19.929 2.67a1.18 1.18 0 00-.069-.393l-.051-.123a1.18 1.18 0 00-.234-.323l-.1-.088a1.179 1.179 0 00-.352-.188l-.129-.035a1.18 1.18 0 00-.398-.016l-.131.025L8.239 4.084l.104.845h11.586v-2.26z" fill="#FBFBFB" stroke="#FBFBFB" stroke-width=".857"/></svg>