<svg width="29" height="29" viewBox="0 0 29 29" fill="none" xmlns="http://www.w3.org/2000/svg">
<g clip-path="url(#clip0_11577_150034)">
<path d="M14.5254 4.00195C15.9915 2.74133 18.1237 2.45381 20.2266 2.6084L20.6465 2.64453C22.9051 2.87278 25.1938 3.5823 26.8232 4.25293L27.4795 4.53613C27.5287 4.5585 27.5723 4.59136 27.6074 4.63184L27.6396 4.6748C27.6786 4.7353 27.6992 4.80601 27.6992 4.87793V24.1279C27.6992 24.159 27.6951 24.1898 27.6875 24.2197L27.6533 24.3066C27.6383 24.3342 27.6199 24.36 27.5986 24.3828L27.5273 24.4424C27.501 24.4593 27.4728 24.4735 27.4434 24.4834L27.3516 24.501C27.3201 24.5033 27.2886 24.5016 27.2578 24.4961L27.1689 24.4688C25.6912 23.7978 23.3644 22.9987 21.0361 22.6953L20.5703 22.6416C18.0677 22.3892 15.7675 22.7693 14.4922 24.3604C14.4746 24.3822 14.4545 24.4026 14.4326 24.4199L14.3613 24.4639C14.3107 24.4882 14.2554 24.501 14.1992 24.501C14.1712 24.501 14.1434 24.4974 14.1162 24.4912L14.0371 24.4639C14.0118 24.4517 13.9877 24.4373 13.9658 24.4199L13.9062 24.3604C12.7105 22.8687 10.614 22.4411 8.29297 22.6016L7.82617 22.6416C5.65807 22.8605 3.44231 23.5467 1.86523 24.1943L1.22949 24.4688C1.20105 24.4817 1.17113 24.4906 1.14062 24.4961L1.04688 24.501C1.01557 24.4987 0.984617 24.4933 0.955078 24.4834L0.871094 24.4424C0.844858 24.4255 0.820912 24.4055 0.799805 24.3828L0.745117 24.3066C0.730097 24.2791 0.718617 24.2499 0.710938 24.2197L0.699219 24.127V4.87793L0.703125 4.82422C0.708243 4.78876 0.718479 4.75425 0.733398 4.72168L0.758789 4.6748C0.788015 4.62942 0.826977 4.59141 0.87207 4.5625L0.918945 4.53613C2.54961 3.79446 5.16923 2.90561 7.75 2.64453L7.75098 2.64551C9.98733 2.42187 12.3093 2.65732 13.873 4.00195L14.1992 4.28223L14.5254 4.00195ZM26.9492 5.11816L26.6416 4.99023C25.1611 4.37129 23.0737 3.70348 20.9873 3.43848L20.5703 3.3916C18.2025 3.15304 16.0224 3.48004 14.7119 4.86035L14.5742 5.00488V23.1191L15.3213 22.6953C16.7307 21.8949 18.5305 21.7265 20.2939 21.8652L20.6465 21.8965H20.6475C22.6561 22.0974 24.6928 22.6823 26.2715 23.2842L26.9492 23.543V5.11816ZM13.8242 5.00488L13.6865 4.86035C12.4579 3.56628 10.4649 3.19792 8.26953 3.35352L7.82812 3.3916C5.60573 3.61494 3.33603 4.33005 1.75684 4.99023L1.44922 5.11816V23.543L2.12793 23.2842C3.70427 22.6825 5.74253 22.0989 7.75195 21.8945V21.8955C9.62399 21.7071 11.5744 21.8429 13.0781 22.6953L13.8242 23.1182V5.00488Z" fill="#030303" stroke="#FBFBFB"/>
</g>
<defs>
<clipPath id="clip0_11577_150034">
<rect width="28" height="28" fill="white" transform="translate(0.199219 0.5)"/>
</clipPath>
</defs>
</svg>
